PathFileType	4	(X/Y/Z)	27_1_16_p1_0-295.trc
DataRate	CameraRate	NumFrames	NumMarkers	Units	OrigDataRate	OrigDataStartFrame	OrigNumFrames
60.0	60.0	7	27	m	60.0	111	296
Frame#	Time	RHip			RKnee			RAnkle			RBigToe			RSmallToe			RHeel			LHip			LKnee			LAnkle			LBigToe			LSmallToe			LHeel			Neck			Head			Nose			RShoulder			RElbow			RWrist			RThumb			RIndex			RPinky			LShoulder			LElbow			LWrist			LThumb			LIndex			LPinky			
		X1	Y1	Z1	X2	Y2	Z2	X3	Y3	Z3	X4	Y4	Z4	X5	Y5	Z5	X6	Y6	Z6	X7	Y7	Z7	X8	Y8	Z8	X9	Y9	Z9	X10	Y10	Z10	X11	Y11	Z11	X12	Y12	Z12	X13	Y13	Z13	X14	Y14	Z14	X15	Y15	Z15	X16	Y16	Z16	X17	Y17	Z17	X18	Y18	Z18	X19	Y19	Z19	X20	Y20	Z20	X21	Y21	Z21	X22	Y22	Z22	X23	Y23	Z23	X24	Y24	Z24	X25	Y25	Z25	X26	Y26	Z26	X27	Y27	Z27	
111	1.85	0.1341181708903136	0.6642074464027777	1.045155804804971	0.12776188479673728	0.6726252635528246	1.435521082921024	0.1647714656126044	0.8354275116256739	1.8534661371925851	0.1354819235861168	0.6219098655029539	1.8566038891930665	0.19488967464120913	0.6439927021102602	1.8501853534370123	0.1608816082281901	0.9116084030598556	1.9075883278983043	-0.058618482286793706	0.6523967843991165	1.0499179433882615	-0.048860850885331264	0.7404808969869366	1.4585889782868273	-0.028474964659489257	0.8154881961035757	1.8361514320300154	-0.03290889029630829	0.6063062571286904	1.8286021173916809	-0.08178211855375823	0.6544599240360022	1.8418510320068764	0.0033375468302895926	0.8972283132543423	1.9083846613067819	0.033569693205136385	0.5814111780105155	0.5056979348130031	0.023248216655742206	0.5344366794524238	0.25027411316157766	0.00275255702952081	0.4369588783451829	0.38854112154476955	0.15880668741538229	0.5686980425044944	0.5782815780408126	0.30809529810211844	0.7584442871482312	0.7984066238568397	0.2761094026124547	0.6760556601009314	0.9541186874751028	0.2561175140134776	0.6390912774221884	1.0292897124649312	0.27177544401999537	0.6656168521980375	1.0436597581802618	0.28672998997394994	0.698288993089875	1.0644980818692502	-0.10598065666054421	0.6403350324690894	0.5909963975050491	-0.17044481052249966	0.6432096700489596	0.811216650407749	-0.14500039841268125	0.5921985031172629	1.0338337590679836	-0.09334562771086118	0.5452445043569921	1.1237075881165772	-0.10619519308395899	0.5634731919194629	1.1468310293234767	-0.15035122409619525	0.5892675082342059	1.1527065913160295
112	1.8666666666666667	0.1385045530680379	0.6651604545716282	1.0454919161755256	0.12398991897951044	0.65955830835095	1.4304172478790995	0.16452689725555406	0.8369913719896332	1.8496572228860666	0.1354839935711811	0.6217238370715488	1.8564685639035616	0.195002511924288	0.6438087852564177	1.8500136543791355	0.16096969759249402	0.911577946729162	1.9073194762575916	-0.05915735672869729	0.652784961308699	1.0532875487422926	-0.053105655487475416	0.7406042847689713	1.454683305411951	-0.03314094958506066	0.8131191214021588	1.835065457205794	-0.03294017487739513	0.6059381572096469	1.8285782826526742	-0.081964424798745	0.6540383361644271	1.841799115384284	0.0028280333379997655	0.8964406708546545	1.908250098365444	0.030730139296729214	0.5942327723831533	0.5067714515490624	0.01931194363635724	0.5231406777841489	0.2506197134807367	-0.0013046764237789905	0.4362302029683562	0.39197507825437583	0.1547166915055767	0.5685477550634566	0.5787397039048133	0.3123766110480988	0.7589776748148175	0.7945057783928007	0.2803453495164621	0.687920956773295	0.9527317814858711	0.2590625724479193	0.668896517465025	1.0266794602462155	0.26907385615580953	0.6807036255567143	1.0347732948333268	0.28385667479210447	0.7141518677621645	1.0605996548626957	-0.10595847229695564	0.6403243764002801	0.5909650455449184	-0.17095468569767244	0.644002533872207	0.8110563291901178	-0.1495848416699915	0.5920896108859397	1.0375476560175148	-0.09738746781238845	0.5581326053996021	1.1278505014749662	-0.11627050135645711	0.5793503858533944	1.1562866114592039	-0.15061241890529134	0.5896445817335728	1.1531132081420294
113	1.8833333333333333	0.13676807960686216	0.6489414504651231	1.0411816407380516	0.11894508492567037	0.6592111608719411	1.4348674207653804	0.16459704339124998	0.837010581519856	1.8497201431938357	0.13532116437435207	0.6219292212252103	1.8568886275543137	0.1948020813292418	0.6438935371662513	1.8501615184668658	0.16098318378720528	0.9117681298899712	1.907738569342179	-0.0639398456470812	0.653617066544768	1.0571655257385297	-0.053250492123397795	0.7403424857556613	1.4550204920767504	-0.031820799238302694	0.8154678761011759	1.8408360495544973	-0.03303257320160193	0.6059352159002884	1.828546625120256	-0.08215197551104801	0.6540158635105552	1.8419266462282256	0.0026878079682193675	0.8979606787304644	1.9039798484855264	0.03079370572415962	0.5942933593364174	0.5067583076236368	0.019026307392424606	0.5232288041177289	0.2507514521167929	-0.0051157359073369	0.4359606931259573	0.3922148528726446	0.15482433942707588	0.5682346809930834	0.5751417804078063	0.3180860125255359	0.7678006007345544	0.7779809396049736	0.2839530166562904	0.7183238301411954	0.9511072811289982	0.25097373979497795	0.6682585384041044	1.0244604379909013	0.2668653655125989	0.6831872106139237	1.0366643298711682	0.2838371382477776	0.7145426694963667	1.0599882289979812	-0.10622396488300999	0.640775344270458	0.5871557636469477	-0.16704009333196093	0.6452573580294173	0.8111331058779885	-0.15055635140091245	0.5934197050592019	1.0378861057854145	-0.10566060735922814	0.5854489668014535	1.1393690628659858	-0.1212380191334891	0.593140671037477	1.1613114382409657	-0.15890443580690464	0.6020692281284394	1.160210496247432
114	1.9	0.1325057047312013	0.6477048610377812	1.0372417632243318	0.11903279444021651	0.6589797866793726	1.434452845020545	0.16457981315387993	0.8370966090680888	1.8499861410476526	0.1353087517433567	0.621873773477322	1.8568337583275765	0.19482879268587075	0.643757529767361	1.850129457715375	0.16086763623038497	0.9118012382045588	1.9081034178842178	-0.06353018862990248	0.6531538254733033	1.053714312123529	-0.05290675042497243	0.7393011399581856	1.4584242880009477	-0.03184359984456808	0.8153270568101068	1.840810844316949	-0.03190106563828009	0.6078922145345959	1.8336282594939408	-0.08209262552390792	0.6536884233350161	1.8417702500173019	-0.002488742294889	0.8937351912610978	1.9071054022312246	0.030800426862689866	0.5940893387406126	0.50667489436592	0.019115969070116225	0.5232270013699467	0.2507316620892244	-0.005222975656296087	0.4358553296901567	0.3922665915077968	0.1548713718435784	0.568070113319775	0.5714089359145531	0.3183176722509684	0.7664820337443624	0.7665629763306048	0.29933232605125015	0.7451387897024471	0.9522537453184681	0.2449465967341593	0.6640194192780614	0.9864699032720928	0.2621592876938355	0.6799081605526432	1.0145159634635057	0.2750684057591578	0.6999046271553048	1.0450249987572469	-0.10625732358152437	0.6408015474930902	0.587151413716489	-0.16693697958883688	0.6452953137049345	0.8111234418555796	-0.1572996176660205	0.6053776311034647	1.034061478032748	-0.10894102848880031	0.5994191994041494	1.1376186454582171	-0.12654840957375574	0.5937318464304921	1.1621636369593968	-0.15822997618865345	0.6017415689007823	1.1556352551932898
115	1.9166666666666667	0.12492271757820139	0.649050153986186	1.0378368830111384	0.11848412701308386	0.6565283622804893	1.4250615262405535	0.17028903360300063	0.8503510248593454	1.8607665582535504	0.13057296232631577	0.6085479805876344	1.8497623589762915	0.19484405848570263	0.6437440788333132	1.8500634763413901	0.1610846307650986	0.9104561633143421	1.9118980112636306	-0.06311143620703995	0.6530761495988362	1.0504910190713117	-0.0529435037032748	0.7392878567366924	1.458007881791207	-0.031815952337587675	0.8152282962273284	1.8407287760049733	-0.0359241119370359	0.5943654797703792	1.8266112827761236	-0.08204090265305411	0.6530425218979052	1.8413285902529604	0.002439292067948917	0.8986694948497734	1.9048759814720897	0.0265823608728404	0.5943697190969618	0.5069104627268877	0.018830527558802216	0.5231106610164317	0.2506984149471067	-0.008793540614530259	0.43572002745836075	0.39252270952864915	0.15474179013131686	0.5679218090106055	0.5714046303057093	0.31768859162711793	0.7670988275855163	0.7624544875073371	0.30439822452280174	0.7568034476106719	0.9460914021792496	0.23810322998845695	0.6798132596071151	0.9743192607195351	0.25630589095543455	0.6796013265376133	0.9859215030449364	0.27011993645137977	0.6965314938523183	1.0310827815476424	-0.10652300604093703	0.6410766740565024	0.5906028155729156	-0.16715306440443556	0.6725679402637165	0.8158425355549248	-0.15796645126041434	0.6059759031286762	1.0376828697532225	-0.1088953012498132	0.598947155385618	1.13439005449778	-0.12680509197358275	0.5936463882647608	1.1622450134891091	-0.1590081892093398	0.6023906454902692	1.159648706179049
116	1.9333333333333333	0.12750915662364298	0.6345223202900487	1.0340969128803952	0.11889420551438495	0.6555233242871372	1.4291513426837108	0.17032860912280787	0.8503714794413032	1.8605743895295777	0.13530804126299759	0.6217386930047456	1.8569053205039279	0.1947659782801011	0.6436458978241353	1.8501343747884655	0.16125427720958618	0.9105345348320936	1.9117081406611574	-0.06632367099158105	0.6660123747874805	1.0579373777504189	-0.049320644261730794	0.7240732220293473	1.4525470050369282	-0.031793490288287644	0.8149585050452111	1.8406633996721016	-0.03589228475001307	0.594318977573139	1.8265993510696177	-0.08198430765365203	0.6528186505036903	1.8411708951286194	0.0028937285558414453	0.897133320761535	1.9088606943891446	0.023395218798036327	0.6074588365875565	0.5081637152211799	0.018696267683481062	0.5233084768372378	0.25087236997229945	-0.011867006751357385	0.44696400923338014	0.39629841755134754	0.15463962526581027	0.5676601233109239	0.571442218387411	0.3172372281270227	0.7680482212222564	0.7623514728707639	0.3079061715785881	0.7561479941718428	0.9410444061508602	0.2342242535718005	0.6797717072378977	0.9696196507677148	0.2525715560024443	0.6935414258147484	0.9766251925601291	0.2692196710193488	0.6951453393337172	1.0140086173634206	-0.10934279489118057	0.6553980107216456	0.5959274902793988	-0.17108586903634307	0.6600224282176705	0.8139753200600888	-0.15805342626895424	0.6062264986720574	1.0377624287858356	-0.11015347145233227	0.6008049206924033	1.1382027301696573	-0.13068897407402486	0.593144663421984	1.1623364264003349	-0.1589979452142685	0.6026978555579913	1.1595520809863171
117	1.95	0.12487938608829564	0.6495667847159159	1.0381713968509405	0.1198079251595954	0.6566100595094452	1.4334515959191987	0.16493211602682906	0.8354078309598959	1.8535890415677794	0.1353404206911353	0.6217560788716634	1.8569194761881374	0.19381587960973906	0.6302490233647121	1.847860347035379	0.16138826758172367	0.9107844856860904	1.912170596030323	-0.06623041278554583	0.6664690337429202	1.0507439245390586	-0.04934757724495776	0.723807693964032	1.4524620903438477	-0.03152311272178882	0.8134834566724328	1.8442836448712692	-0.037111921003483796	0.5919956486199031	1.8211638866067261	-0.08201830062029372	0.6529314756169637	1.8412374218410772	0.002831948105521153	0.896866906378036	1.908826839232091	0.023389946249467844	0.6074687424563301	0.5081589424645185	0.010894391060024504	0.5123520583993144	0.25500110005481846	-0.015582871527802494	0.44709281928928857	0.3965083720359782	0.15443088104159802	0.5677142256087319	0.5749360082764273	0.3134210906590608	0.783093921639485	0.7602057008834294	0.3017436561235077	0.7703163907771104	0.9394473490790548	0.22848398709325013	0.6793116123704439	0.9582974224576057	0.24836659759934535	0.6938052401976252	0.9735026511946315	0.2613787436558634	0.7071736995592749	0.9965073149014267	-0.10938593877099607	0.6554635185071345	0.595928004397953	-0.1671778656320198	0.6611237864039924	0.8141604734408358	-0.15810566122366554	0.6063300440654619	1.0377524917449787	-0.1145173170140226	0.6005410272091294	1.1382992812828077	-0.1343220668568518	0.5924722918057025	1.1621357318776828	-0.15911777195770674	0.6028084644112092	1.1598188482935243
